<svg width="25" height="26" viewBox="0 0 25 26" fill="none" xmlns="http://www.w3.org/2000/svg">
<path d="M2.73 25H2.275V0.499998H3.465L18.025 23.145V0.499998H18.48V25H15.925L2.73 4.7V25Z" fill="#FFA800"/>
<path d="M3.73 25H3.275V0.499998H4.465L19.025 23.145V0.499998H19.48V25H16.925L3.73 4.7V25Z" fill="#FFB423"/>
<path d="M4.73 25H4.275V0.499998H5.465L20.025 23.145V0.499998H20.48V25H17.925L4.73 4.7V25Z" fill="#FFBB36"/>
<path d="M5.73 25H5.275V0.499998H6.465L21.025 23.145V0.499998H21.48V25H18.925L5.73 4.7V25Z" fill="#FBCB6E"/>
<path d="M6.73 25H6.275V0.499998H7.465L22.025 23.145V0.499998H22.48V25H19.925L6.73 4.7V25Z" fill="#FFD98F"/>
</svg>
